<?xml version="1.0" encoding="UTF-8"?>
<svg viewBox="0 0 42 35" xmlns="http://www.w3.org/2000/svg">
<g fill-rule="evenodd">
<g transform="translate(-16 -17)" fill="" fill-rule="nonzero">
<g transform="translate(16 17)">
<path d="m0.55153 28.694v-1.3266h0.96936v1.3266h0.78552v0.76977h-0.78552v2.2602c0 0.21291 0.10028 0.27843 0.35097 0.27843 0.15042 0 0.30084-0.049134 0.43454-0.08189v0.78614c-0.26741 0.032756-0.50139 0.065512-0.7688 0.065512-0.71866 0-0.98607-0.36032-0.98607-0.91717v-2.3748h-0.55153v-0.76977l0.55153-0.016378zm3.1922 2.1455c0.016713 0.8189 0.3844 1.1465 0.83565 1.1465 0.45125 0 0.65181-0.19654 0.90251-0.47496l0.70195 0.42583c-0.36769 0.57323-0.91922 0.8189-1.688 0.8189-1.0529 0-1.7047-0.80252-1.7047-2.0636s0.65181-2.0636 1.7549-2.0636c1.0529 0 1.6546 0.86803 1.6546 1.8343v0.39307h-2.4568v-0.016378zm1.5543-0.63874c-0.016713-0.55685-0.31755-0.86803-0.7688-0.86803-0.46797 0-0.75209 0.32756-0.7688 0.86803h1.5376zm4.0111-0.21291c-0.15042-0.34394-0.31755-0.60599-0.80223-0.60599-0.53482 0-0.78552 0.40945-0.78552 1.3102 0 0.88441 0.2507 1.2939 0.81894 1.2939 0.41783 0 0.65181-0.27843 0.85237-0.63874l0.73538 0.40945c-0.3844 0.70425-0.88579 0.99906-1.6212 0.99906-1.0864 0-1.7549-0.80252-1.7549-2.0636s0.65181-2.0636 1.7549-2.0636c0.7688 0 1.3705 0.39307 1.5877 1.0646l-0.78552 0.2948zm1.5376 2.686v-5.5358h0.96936v1.9817c0.30084-0.24567 0.68524-0.50772 1.1532-0.50772 0.80223 0 1.2033 0.5241 1.2033 1.3266v2.7351h-0.96936v-2.5877c0-0.54047-0.16713-0.70425-0.50139-0.70425-0.41783 0-0.73538 0.24567-0.90251 0.42583v2.8825h-0.95265v-0.016378zm4.312 0v-3.9799h0.88579v0.42583c0.35098-0.24567 0.7688-0.50772 1.2368-0.50772 0.80223 0 1.1866 0.5241 1.1866 1.3266v2.7351h-0.95265v-2.5877c0-0.54047-0.16713-0.70425-0.50139-0.70425-0.41783 0-0.73538 0.24567-0.90251 0.42583v2.8825h-0.95265v-0.016378zm5.7493-4.0617c1.1031 0 1.7549 0.80252 1.7549 2.0636 0 1.2611-0.65181 2.0636-1.7549 2.0636s-1.7549-0.80252-1.7549-2.0636c0.016713-1.2611 0.66852-2.0636 1.7549-2.0636zm0 0.76977c-0.53482 0-0.78552 0.40945-0.78552 1.3102 0 0.88441 0.2507 1.2939 0.78552 1.2939s0.78552-0.40945 0.78552-1.2939c0.016713-0.90079-0.2507-1.3102-0.78552-1.3102zm2.5404 3.292v-5.5358h0.95265v5.5358h-0.95265zm3.493-4.0617c1.1031 0 1.7549 0.80252 1.7549 2.0636 0 1.2611-0.65181 2.0636-1.7549 2.0636-1.1031 0-1.7549-0.80252-1.7549-2.0636 0.016713-1.2611 0.66852-2.0636 1.7549-2.0636zm0 0.76977c-0.53482 0-0.78552 0.40945-0.78552 1.3102 0 0.88441 0.2507 1.2939 0.78552 1.2939 0.53482 0 0.78552-0.40945 0.78552-1.2939 0.016713-0.90079-0.23398-1.3102-0.78552-1.3102zm5.7326-0.11465c-0.21727 0-0.46797 0-0.61838 0.098268 0.1337 0.16378 0.21727 0.39307 0.21727 0.70425 0 0.75339-0.51811 1.2939-1.5209 1.2939-0.41783 0-0.75209 0.016378-0.75209 0.24567 0 0.63874 2.6574-0.22929 2.6574 1.3594 0 0.57323-0.58496 1.1792-1.8719 1.1792-1.0864 0-1.805-0.32756-1.805-0.94992 0-0.49134 0.3844-0.73701 0.71866-0.73701v-0.032756c-0.18384-0.11465-0.60167-0.21291-0.60167-0.63874 0-0.37669 0.45125-0.6715 0.6351-0.72063-0.33426-0.26205-0.60167-0.57323-0.60167-1.0482 0-0.70425 0.53482-1.3921 1.5877-1.3921 0.33426 0 0.75209 0.1474 0.98607 0.36032 0.18384-0.24567 0.48468-0.37669 0.95265-0.36032v0.63874h0.016713zm-2.8078 3.7997c0 0.2948 0.26741 0.44221 1.0696 0.44221 0.61838 0 0.83565-0.31118 0.83565-0.44221 0-0.18016-0.28412-0.45858-1.2201-0.45858-0.53482 0-0.68524 0.27843-0.68524 0.45858zm0.85237-3.7506c-0.41783 0-0.70195 0.2948-0.70195 0.65512 0 0.36032 0.28412 0.65512 0.70195 0.65512 0.36769 0 0.65181-0.2948 0.65181-0.65512 0.016713-0.36032-0.28412-0.65512-0.65181-0.65512zm2.6407-1.3594v-0.88441h0.95265v0.88441h-0.95265zm0.96936 3.554v1.1792h-0.95265v-3.9799h0.95265v2.8006zm1.7382-0.6715c0.016713 0.8189 0.3844 1.1465 0.83565 1.1465 0.45125 0 0.65181-0.19654 0.90251-0.47496l0.70195 0.42583c-0.36769 0.57323-0.91922 0.8189-1.688 0.8189-1.0529 0-1.7047-0.80252-1.7047-2.0636s0.65181-2.0636 1.7549-2.0636c1.0529 0 1.6546 0.86803 1.6546 1.8343v0.39307h-2.4568v-0.016378zm1.5543-0.63874c-0.016713-0.55685-0.31755-0.86803-0.78552-0.86803s-0.7688 0.32756-0.7688 0.86803h1.5543zm3.6435-0.45858c-0.20056-0.21291-0.45125-0.42583-0.75209-0.42583-0.36769 0-0.53482 0.1474-0.53482 0.39307 0 0.68788 2.0223 0.39307 2.0223 1.8507 0 0.8189-0.6351 1.1956-1.4875 1.1956-0.6351 0-1.1699-0.27843-1.5209-0.80252l0.65181-0.47496c0.21727 0.31118 0.51811 0.57323 0.93593 0.57323 0.33426 0 0.56825-0.18016 0.56825-0.45858 0-0.6715-2.0223-0.42583-2.0223-1.818 0-0.73701 0.6351-1.1628 1.337-1.1628 0.53482 0 1.0696 0.19654 1.4206 0.60599l-0.61838 0.5241zm-12.117-12.333c-0.7688 1.1628-2.0056 1.8835-3.376 1.8835-1.8719 0-3.4262-0.83528-3.4262-2.817 0-2.9317 4.3621-3.9635 7.7047-4.16v0.86803c0.016713 1.8998-0.016713 2.9153-0.90251 4.2255zm-6.2173-10.531c0.50139-1.3266 1.8552-1.8998 3.6936-1.8998 2.624 0 3.376 1.8016 3.4095 3.292l0.016713 0.72063c-7.2535 0.34394-14.072 1.6706-13.939 8.1726 0.10028 4.5531 4.2953 6.4202 7.1866 6.4038 3.3593 0 5.2312-0.88441 7.0864-3.1282 0.033426 0.94992 0.15042 1.949 0.31755 2.686h6.5014c-0.36769-1.1137-0.45125-2.2274-0.45125-3.3902v-11.809c0-2.8661-0.55153-4.4712-2.1226-5.8633-1.4875-1.3266-3.9276-2.0636-7.2201-2.0636-3.0084 0-5.5989 0.6715-7.5042 1.949 1.571 1.212 2.6072 2.8989 3.0251 4.9298zm-7.1866 10.04v0.58961c0.10028 2.3257 1.2535 3.7669 2.3231 4.635-1.805 1.0154-3.9443 1.4413-5.8663 1.4413-7.0195 0-11.164-4.8643-11.164-11.563 0-6.977 4.2786-12.021 11.582-12.021 5.2981 0 9.6435 2.7515 10.111 8.1399h-6.3677c0-2.0472-1.4708-3.1446-3.5265-3.1446-3.2925 0-4.312 2.2765-4.312 6.4693 0 4.2583 0.95265 6.7477 4.3287 6.7477 1.2535 0.016378 2.2897-0.40945 2.8914-1.2939z"/>
</g>
</g>
</g>
</svg>
