<?xml version="1.0" encoding="UTF-8"?>
<svg viewBox="0 0 400 397" xmlns="http://www.w3.org/2000/svg">
<defs>
<radialGradient id="a" cx="0%" cy="0%" r="100%">
<stop stop-color="#20C6B7" offset="0"/>
<stop stop-color="#4D9ABF" offset="1"/>
</radialGradient>
</defs>
<path d="m282.15 140.4c2.0421 1.0017 3.7439 2.3373 5.1053 3.8398 0.17018 0.16695 0.17018 0.16695 0.34035 0.16695h0.17018l39.141-16.528c0.17018-0.16695 0.34035-0.33389 0.34035-0.50084s0-0.33389-0.17018-0.50084l-36.588-35.894c-0.17018-0.16695-0.34035-0.16695-0.34035-0.16695h-0.17018c-0.17018 0-0.34035 0.16695-0.34035 0.50084l-7.9983 48.582c0.17018 0.16695 0.34035 0.50084 0.51053 0.50084zm-81.174-32.555c1.8719 2.8381 3.0632 6.177 3.4035 9.516 0 0.16695 0.17018 0.33389 0.34035 0.50084l58.2 24.541h0.17018c0.17018 0 0.34035 0 0.34035-0.16695 1.7018-1.3356 3.7439-2.3373 5.9562-3.005 0.17018 0 0.34035-0.16695 0.34035-0.50084l9.5299-58.598c0-0.16695 0-0.33389-0.17018-0.50084l-36.418-35.894c-0.17018-0.16695-0.17018-0.16695-0.34035-0.16695s-0.34035 0.16695-0.34035 0.33389l-41.013 63.106c-0.17018 0.33389-0.17018 0.66779 0 0.83474zm198.77 90.318l-62.455-61.437c-0.17018-0.16695-0.34035-0.16695-0.34035-0.16695h-0.17018l-42.374 17.863c-0.17018 0.16695-0.34035 0.33389-0.34035 0.50084s0.17018 0.50084 0.34035 0.50084l104.49 43.907h0.17018c0.17018 0 0.34035 0 0.34035-0.16695l0.34035-0.33389c0.34035 0 0.34035-0.50084 0-0.66779zm-10.381 10.017l-100.23-42.071h-0.17018c-0.17018 0-0.34035 0-0.51053 0.16695-2.7228 3.6728-6.8071 6.0101-11.572 6.6779-0.17018 0-0.51053 0.16695-0.51053 0.50084l-10.721 65.276c0 0.16695 0 0.3339 0.17018 0.50084 3.7439 2.8381 5.9562 7.0118 6.4667 11.686 0 0.3339 0.17018 0.50084 0.51053 0.50084l60.583 12.521h0.17018c0.17018 0 0.34035 0 0.34035-0.16695l55.478-54.592c0.17018-0.16695 0.17018-0.33389 0.17018-0.50084s0-0.33389-0.17018-0.50084zm-132.74-55.76l-54.797-23.039h-0.17018c-0.17018 0-0.34035 0.16695-0.51053 0.33389-3.7439 5.6762-10.04 9.0151-16.847 9.0151-1.0211 0-2.0421-0.16695-3.2334-0.33389h-0.17018c-0.17018 0-0.34035 0.16695-0.51053 0.33389l-45.097 69.283c-0.17018 0.16695-0.17018 0.50084 0 0.66779 0.17018 0.16695 0.34035 0.16695 0.51053 0.16695h0.17018l120.31-50.919c0.17018-0.16695 0.34035-0.33389 0.34035-0.50084v-0.66779-0.83473c0-1.0017 0.17018-2.0034 0.34035-2.8381 0-0.33389-0.17018-0.50084-0.34035-0.66779zm66.029 121.2l-53.265-10.852h-0.17018c-0.17018 0-0.34035 0.16695-0.51053 0.16695-2.0421 2.5042-4.5948 4.5076-7.6579 5.6762-0.17018 0-0.34035 0.33389-0.34035 0.50084l-12.763 77.797c0 0.33389 0.17018 0.50084 0.34035 0.66779h0.34035c0.17018 0 0.34035 0 0.34035-0.16695l73.857-72.622c0.17018-0.16695 0.17018-0.3339 0.17018-0.50084 0-0.50084-0.17018-0.66779-0.34035-0.66779zm-74.367-5.3423c-5.1053-2.0034-8.8492-6.5109-10.211-11.686 0-0.16695-0.17018-0.33389-0.51053-0.50084l-98.702-20.201h-0.17018c-0.17018 0-0.34035 0.16695-0.51053 0.33389-0.51053 0.83474-0.85088 1.5025-1.3614 2.1703-0.17018 0.16695-0.17018 0.50084 0 0.66779l89.853 128.88c0.17018 0.16695 0.17018 0.16695 0.34035 0.16695 0.17018 0 0.34035 0 0.34035-0.16695l5.4456-5.3423c0-0.16695 0.17018-0.16695 0.17018-0.33389l15.316-93.49c0.34035 0 0.34035-0.33389 0-0.50084zm-107.38-44.241c0 0.33389 0.17018 0.50084 0.51053 0.50084l97.852 20.034h0.17018c0.17018 0 0.34035-0.16695 0.51053-0.33389 2.893-5.0084 7.9983-8.3474 13.784-8.6812 0.34035 0 0.51053-0.16695 0.51053-0.50084l10.551-64.275c0-0.16695 0-0.50084-0.34035-0.50084-0.68071-0.50084-1.3614-1.0017-2.2123-1.8364-0.17018-0.16695-0.34035-0.16695-0.34035-0.16695h-0.17018l-121 51.253c-0.34035 0.16695-0.34035 0.33389-0.34035 0.66779 0.17018 1.3356 0.51053 2.5042 0.51053 3.8398zm-41.013 16.194c-0.51053-0.66779-1.0211-1.3356-1.5316-2.1703-0.17018-0.16695-0.34035-0.33389-0.51053-0.33389h-0.17018l-42.204 17.863c-0.17018 0-0.34035 0.16695-0.34035 0.33389s0 0.33389 0.17018 0.50084l20.591 20.201c0.17018 0.16695 0.34035 0.16695 0.34035 0.16695 0.17018 0 0.34035-0.16695 0.51053-0.33389l23.314-35.894s0-0.16695-0.17018-0.33389zm27.909 6.5109c-0.17018-0.16695-0.34035-0.33389-0.51053-0.33389h-0.17018c-3.0632 1.3356-6.1264 2.0034-9.3597 2.0034-2.5526 0-4.9351-0.33389-7.4878-1.1686h-0.17018c-0.17018 0-0.34035 0.16695-0.51053 0.33389l-24.505 37.73-0.17018 0.16695c-0.17018 0.16695-0.17018 0.50084 0 0.66779l112.66 110.69c0.17018 0.16695 0.34035 0.16695 0.34035 0.16695 0.17018 0 0.34035 0 0.34035-0.16695l19.74-19.533c0.17018-0.16695 0.17018-0.50084 0-0.66779l-90.194-129.88zm-15.826-43.573c0.17018 0.16695 0.34035 0.3339 0.51053 0.3339h0.17018c1.7018-0.3339 3.5737-0.66779 5.2755-0.66779 1.8719 0 3.9141 0.33389 5.786 0.83473h0.17018c0.17018 0 0.34035-0.16695 0.51053-0.33389l45.607-70.118c0.17018-0.16695 0.17018-0.50084 0-0.66779-3.5737-3.6728-5.6158-8.5143-5.6158-13.69 0-1.5025 0.17018-3.005 0.51053-4.5076 0-0.33389-0.17018-0.50084-0.34035-0.66779-5.786-2.5042-57.009-23.873-57.009-24.04h-0.17018c-0.17018 0-0.34035 0-0.34035 0.16695l-43.395 42.738c-0.17018 0.16695-0.17018 0.50084 0 0.66779l48.33 69.951zm4.9351-122.21s51.734 21.703 53.946 22.705h0.17018c0.17018 0 0.17018 0 0.34035-0.16695 3.5737-2.8381 8.1685-4.5076 12.763-4.5076 2.2123 0 4.4246 0.33389 6.6369 1.0017h0.17018c0.17018 0 0.34035-0.16695 0.51053-0.33389l42.034-64.608c0.17018-0.16695 0.17018-0.50084 0-0.66779l-34.886-34.224c-0.17018-0.16695-0.17018-0.16695-0.34035-0.16695-0.17018 0-0.34035 0-0.34035 0.16695l-81.004 79.801c-0.17018 0.16695-0.17018 0.33389-0.17018 0.50084-0.17018 0.33389 0 0.33389 0.17018 0.50084zm-20.081 134.39c0.17018 0 0.34035-0.16695 0.51053-0.33389 1.0211-2.0034 2.5526-3.8398 4.0842-5.5093 0.17018-0.16695 0.17018-0.50084 0-0.66779-0.51053-0.66779-46.628-66.779-46.628-66.946-0.17018-0.16695-0.17018-0.16695-0.51053-0.33389-0.17018 0-0.34035 0-0.34035 0.16695l-53.776 52.755c-0.17018 0.16695-0.17018 0.33389-0.17018 0.50084s0.17018 0.33389 0.51053 0.33389l96.32 20.034c-0.17018 0-0.17018 0 0 0zm-4.4246 11.519c0-0.33389-0.17018-0.50084-0.51053-0.50084l-83.557-17.196h-0.17018c-0.17018 0-0.34035 0.16695-0.51053 0.33389s0 0.50084 0.17018 0.66779l37.269 36.728c0.17018 0.16695 0.34035 0.16695 0.34035 0.16695h0.17018l46.288-19.533c0.34035-0.3339 0.51053-0.50084 0.51053-0.66779z" fill="url(#a)"/>
</svg>
